<svg
  role="img"
  width="100%"
  height="100%"
  viewBox="0 0 240 240"
  xmlns="http://www.w3.org/2000/svg"
>
  <title>
    dof fuminicon
  </title>
  <g class="color" style="fill-rule:evenodd">
    <g fill="var(--fumonicon-dof-primary, var(--grey-700, hsl(0, 0%, 33%)))">
      <path
        d="M63.708,207.5l-47.631,-27.5l0,-55l47.631,-27.5l56.292,32.5l5.196,-3l0,30l-5.196,3l-56.292,-32.5l-21.65,12.5l0,25l21.65,12.5l21.651,-12.5l0,-21l25.981,15l0,21l-47.632,27.5Z"
      />
      <path
        d="M72.369,27.5l47.631,-27.5l47.631,27.5l0,55l-56.291,32.5l0,6l-25.981,-15l0,-6l56.292,-32.5l0,-25l-21.651,-12.5l-21.651,12.5l0,25l18.187,10.5l-25.981,15l-18.186,-10.5l0,-55Z"
      />
      <path
        d="M223.923,125l0,55l-47.631,27.5l-47.632,-27.5l0,-65l-5.196,-3l25.981,-15l5.196,3l0,65l21.651,12.5l21.65,-12.5l0,-25l-21.65,-12.5l-18.187,10.5l0,-30l18.187,-10.5l47.631,27.5Z"
      />
    </g>
    <g fill="var(--fumonicon-dof-secondary, var(--grey-500, hsl(0, 0%, 75%)))">
      <path d="M223.923,100l-8.66,-5l0,-30l-25.981,-15l0,-10l34.641,20l0,40Z" />
      <path
        d="M85.359,220l8.66,-5l25.981,15l25.981,-15l8.66,5l-34.641,20l-34.641,-20Z"
      />
      <path d="M50.718,40l0,10l-25.981,15l0,30l-8.66,5l0,-40l34.641,-20Z" />
    </g>
  </g>
</svg>
