<svg
  role="img"
  width="100%"
  height="100%"
  viewBox="0 0 240 240"
  xmlns="http://www.w3.org/2000/svg"
>
  <title>
    fag fumonicon
  </title>
  <g class="color" style="fill-rule:evenodd">
    <g fill="var(--fumonicon-fag-primary, var(--grey-700, hsl(0, 0%, 33%)))">
      <path
        d="M68.038,210L16.077,180L16.077,60L68.038,30L120,60L171.962,30L223.923,60L223.923,180L171.962,210L145.981,195L197.942,165L197.942,75L171.962,60L145.981,75L171.962,90L171.962,150L120,180L68.038,150L68.038,90L94.019,75L68.038,60L42.058,75L42.058,165L94.019,195L68.038,210ZM120,90L145.981,105L145.981,135L120,150L94.019,135L94.019,105L120,90Z"
      />
    </g>
    <g fill="var(--fumonicon-fag-secondary, var(--felix, #adff2f))">
      <path
        d="M85.359,220L94.019,215L120,230L145.981,215L154.641,220L120,240L85.359,220Z"
      />
      <path
        d="M85.359,20L94.019,25L120,10L145.981,25L154.641,20L120,0L85.359,20Z"
      />
    </g>
    <g class="mono">
      <path
        fill="none"
        d=" M68.038,210L16.077,180L16.077,60L68.038,30L120,60L171.962,30L223.923,60L223.923,180L171.962,210L145.981,195L197.942,165L197.942,75L171.962,60L145.981,75L171.962,90L171.962,150L120,180L68.038,150L68.038,90L94.019,75L68.038,60L42.058,75L42.058,165L94.019,195L68.038,210ZM120,90L145.981,105L145.981,135L120,150L94.019,135L94.019,105L120,90Z M85.359,220L94.019,215L120,230L145.981,215L154.641,220L120,240L85.359,220Z M85.359,20L94.019,25L120,10L145.981,25L154.641,20L120,0L85.359,20Z "
      />
    </g>
  </g>
</svg>
