<svg
  role="img"
  width="100%"
  height="100%"
  viewBox="0 0 240 240"
  xmlns="http://www.w3.org/2000/svg"
>
  <title>
    portrait_meg fuminicon
  </title>
  <g class="color" style="fill-rule:evenodd">
    <path
      id="portrait_meg-bg"
      d="M120,0l103.923,60l0,120l-103.923,60l-103.923,-60l0,-120l103.923,-60Z"
      fill="var(--fumonicon-portrait-meg-bg, var(--grey-500, hsl(0, 0%, 50%)))"
    />
    <g id="portrait_meg-body">
      <path
        d="M42.058,195l51.961,-30l51.962,0l51.961,30l-77.942,45l-77.942,-45Z"
        fill="var(--fumonicon-portrait-meg-shirt, var(--black, hsl(0, 0%, 0%)))"
      />
      <path
        d="M59.378,185l-8.66,-5l0,-40l17.32,-10l43.302,25l-51.962,30Z"
        fill="var(--fumonicon-portrait-meg-shirt, var(--black, hsl(0, 0%, 0%)))"
      />
      <path
        d="M171.962,180l8.66,-5l0,-30l-8.66,-5l-34.641,20l34.641,20Z"
        fill="var(--fumonicon-portrait-meg-shirt, var(--black, hsl(0, 0%, 0%)))"
      />
      <path
        d="M94.019,185l17.321,10l0,20l8.66,5l8.66,-5l0,-20l17.321,-10l0,-20l-51.962,0l0,20Z"
        fill="var(--fumonicon-portrait-meg-neck, var(--grey-200, #e6e6e6))"
      />
    </g>
    <path
      id="portrait_meg-head"
      d="M120,60l51.962,30l0,60l-51.962,30l-43.301,-25l0,-70l43.301,-25Z"
      fill="var(--fumonicon-portrait-meg-face, var(--white, hsl(0, 0%, 100%)))"
    />
    <g id="portrait_meg-hair">
      <path
        d="M68.038,70l51.962,-30l69.282,40l0,100l-8.66,5l0,20l-43.301,25l0,-60l17.32,-10l0,-60l-17.32,-10l0,-20l-17.321,-10l-17.321,10l-25.98,15l0,70l17.32,10l-17.32,10l-8.661,-5l0,-100Z"
        fill="var(--fumonicon-portrait-meg-hair, var(--yellow-900, #382a19))"
      />
    </g>
    <g
      id="portrait_meg-darken"
      style="fill-opacity:0.12; mix-blend-mode: luminosity;"
    >
      <path d="M120,180l34.641,-20l0,-60l-17.32,-10l0,-20l-17.321,-10l0,120Z" />
      <path d="M120,220l8.66,-5l0,-20l8.661,-5l0,-20l-17.321,10l0,40Z" />
      <path
        d="M120,240l-77.942,-45l43.301,-25l8.66,-5l0,20l17.321,10l0,20l8.66,5l0,20Z"
        fill="#fff"
      />
      <path
        d="M120,60l0,-20l69.282,40l0,100l-8.66,5l0,20l-43.301,25l0,-60l17.32,-10l0,-60l-17.32,-10l0,-20l-17.321,-10Z"
      />
    </g>
  </g>
</svg>
