<svg
  role="img"
  width="100%"
  height="100%"
  viewBox="0 0 240 240"
  xmlns="http://www.w3.org/2000/svg"
>
  <title>
    portrait_fag fuminicon
  </title>
  <g class="color" style="fill-rule:evenodd">
    <path
      id="portrait_fag-bg"
      d="M120,0l103.923,60l0,120l-103.923,60l-103.923,-60l0,-120l103.923,-60Z"
      fill="var(--fumonicon-portrait-fag-bg, var(--grey-500, hsl(0, 0%, 50%)))"
    />
    <g id="portrait_fag-body">
      <path
        d="M42.058,195l51.961,-30l51.962,0l51.961,30l-77.942,45l-77.942,-45Z"
        fill="var(--fumonicon-portrait-fag-shirt, var(--black, hsl(0, 0%, 0%)))"
      />
      <path
        d="M76.699,175l43.301,25l43.301,-25l-17.32,-10l-51.962,0l-17.32,10Z"
        fill="var(--fumonicon-portrait-fag-neck, var(--grey-200, #e6e6e6))"
      />
    </g>
    <path
      id="portrait_fag-head"
      d="M120,60l51.962,30l0,60l-51.962,30l-51.962,-30l0,-60l51.962,-30Z"
      fill="var(--fumonicon-portrait-fag-face, var(--white, hsl(0, 0%, 100%)))"
    />
    <g id="portrait_fag-hair">
      <path
        d="M120,32l17.321,10l0,20l-17.321,10l-17.321,-10l0,-20l17.321,-10Z"
        fill="var(--fumonicon-portrait-fag-bun, var(--yellow-800, #553e23))"
      />
      <path
        d="M94.019,75l25.981,-15l25.981,15l-25.981,15l-25.981,-15Z"
        fill="var(--fumonicon-portrait-fag-hair, var(--yellow-700, #73542f))"
      />
    </g>
    <g
      id="portrait_fag-darken"
      style="fill-opacity:0.12; mix-blend-mode: luminosity;"
    >
      <path d="M120,32l17.321,10l0,20l-6.929,4l-10.392,-6l0,-28Z" />
      <path d="M120,90l25.981,-15l-25.981,-15l0,30Z" />
      <path d="M120,180l51.962,-30l0,-60l-25.981,-15l-25.981,15l0,90Z" />
      <path d="M120,200l43.301,-25l-17.32,-10l-25.981,15l0,20Z" />
      <path d="M120,240l-77.942,-45l34.641,-20l43.301,25l0,40Z" fill="#fff" />
    </g>
  </g>
</svg>
