<svg
  role="img"
  width="100%"
  height="100%"
  viewBox="0 0 240 240"
  xmlns="http://www.w3.org/2000/svg"
>
  <title>
    solarpunk fuminicon
  </title>
  <g class="color" style="fill-rule:evenodd">
    <path
      id="solarpunk-bg"
      d="M120,0l103.923,60l0,120l-103.923,60l-103.923,-60l0,-120l103.923,-60Z"
    />
    <g id="solarpunk-burst" fill="var(--felix, #adff2f)">
      <path
        d="M120,0l-14.682,8.477l14.682,111.523l14.682,-111.523l-14.682,-8.477Z"
      />
      <path d="M183.81,36.841l-63.81,83.159l40.113,-96.841l23.697,13.682Z" />
      <path
        d="M223.923,60l0,16.954l-103.923,43.046l89.241,-68.477l14.682,8.477Z"
      />
      <path d="M223.923,133.682l-103.923,-13.682l103.923,-13.682l0,27.364Z" />
      <path
        d="M223.923,180l-14.682,8.477l-89.241,-68.477l103.923,43.046l0,16.954Z"
      />
      <path d="M160.113,216.841l-40.113,-96.841l63.81,83.159l-23.697,13.682Z" />
      <path
        d="M120,240l14.682,-8.477l-14.682,-111.523l-14.682,111.523l14.682,8.477Z"
      />
      <path d="M56.19,203.159l63.81,-83.159l-40.113,96.841l-23.697,-13.682Z" />
      <path
        d="M16.077,180l14.682,8.477l89.241,-68.477l-103.923,43.046l0,16.954Z"
      />
      <path d="M16.077,106.318l103.923,13.682l-103.923,13.682l0,-27.364Z" />
      <path
        d="M16.077,60l0,16.954l103.923,43.046l-89.241,-68.477l-14.682,8.477Z"
      />
      <path d="M79.887,23.159l40.113,96.841l-63.81,-83.159l23.697,-13.682Z" />
      <path
        id="solarpunk-hex"
        d="M120,80l34.641,20l0,40l-34.641,20l-34.641,-20l0,-40l34.641,-20Z"
      />
    </g>
  </g>
</svg>
