<svg
  role="img"
  width="100%"
  height="100%"
  viewBox="0 0 240 240"
  xmlns="http://www.w3.org/2000/svg"
>
  <title>
    uniform fumonicon
  </title>
  <g class="color" style="fill-rule:evenodd">
    <path
      d="M120,0l103.923,60l0,120l-103.923,60l-103.923,-60l0,-120l103.923,-60Z"
      style="fill:#bfbfbf;"
    />
    <path
      d="M85.359,50l34.641,-20l34.641,20l-34.641,20l-34.641,-20Z"
      style="fill:#e6e6e6;"
    />
    <path d="M120,30l34.641,20l-34.641,20l0,-40Z" style="fill-opacity:0.12;" />
    <path
      d="M88.823,18l0,14l31.177,18l31.177,-18l0,-14l-31.177,-18l-31.177,18Z"
      style="fill:#fff;"
    />
    <path d="M166.765,177l0,32l27.713,-16l-27.713,-16Z" style="fill:#e6e6e6;" />
    <path d="M45.522,193l27.713,16l0,-32l-27.713,16Z" style="fill:#e6e6e6;" />
    <path
      d="M120,0l31.177,18l0,14l-31.177,18l0,-50Z"
      style="fill-opacity:0.12;"
    />
    <path
      d="M42.058,195l0,-120l51.961,-30l0,10l25.981,15l0,120l-43.301,25l0,-120l-1.732,-1l0,82l-32.909,19Z"
      style="fill:#333;"
    />
    <path
      d="M76.699,215l0,-30l43.301,-25l43.301,25l0,30l-43.301,25l-43.301,-25Z"
      style="fill:#333;"
    />
    <path
      d="M94.019,85l51.962,-30l0,-10l51.961,30l0,120l-32.909,-19l0,-82l-1.732,1l0,120l-69.282,-40l0,-90Z"
      style="fill:#333;"
    />
    <path
      d="M76.699,213l43.301,-25l0,2l-43.301,25l0,-2Z"
      style="fill:#808080;"
    />
    <path
      d="M92.287,46l0,10l25.981,15l1.732,-1l-25.981,-15l0,-10l-1.732,1Z"
      style="fill:#808080;"
    />
    <path
      d="M180.622,65l0,20l17.32,10l0,2l-19.052,-11l0,-22l1.732,1Z"
      style="fill:#808080;"
    />
    <path
      d="M163.301,213l-67.55,-39l0,-88l51.962,-30l0,-10l-1.732,-1l0,10l-51.962,30l0,90l69.282,40l0,-2Z"
      style="fill:#808080;"
    />
    <path
      d="M197.942,157l-10.392,-6l0,-22l10.392,-6l0,2l-8.66,5l0,20l8.66,5l0,2Z"
      style="fill:#808080;"
    />
    <path
      d="M42.058,157l10.392,-6l0,-22l-10.392,-6l0,2l8.66,5l0,20l-8.66,5l0,2Z"
      style="fill:#808080;"
    />
    <path
      d="M59.378,65l0,20l-17.32,10l0,2l19.052,-11l0,-22l-1.732,1Z"
      style="fill:#808080;"
    />
    <path d="M197.942,125l-8.66,5l0,20l8.66,5l0,-30Z" style="fill:#4d4d4d;" />
    <path d="M42.058,125l8.66,5l0,20l-8.66,5l0,-30Z" style="fill:#4d4d4d;" />
    <path
      d="M180.622,85l0,-20l17.32,10l0,20l-17.32,-10Z"
      style="fill:#4d4d4d;"
    />
    <path
      d="M42.058,75l17.32,-10l0,20l-17.32,10l0,-20Z"
      style="fill:#4d4d4d;"
    />
  </g>
</svg>
