<?xml version="1.0" encoding="UTF-8" standalone="no" ?>
<!DOCTYPE svg PUBLIC "-//W3C//DTD SVG 1.1//EN"
  "http://www.w3.org/Graphics/SVG/1.1/DTD/svg11.dtd">
<svg
  width="100%"
  height="100%"
  viewBox="0 0 240 240"
  version="1.1"
  xmlns="http://www.w3.org/2000/svg"
  xmlns:xlink="http://www.w3.org/1999/xlink"
  xml:space="preserve"
  xmlns:serif="http://www.serif.com/"
  style="fill-rule:evenodd;clip-rule:evenodd;stroke-linejoin:round;stroke-miterlimit:2;"
>
  <rect id="doorway" x="0" y="0" width="240" height="240" style="fill:none;" />
  <clipPath id="_clip1">
    <rect x="0" y="0" width="240" height="240" />
  </clipPath>
  <g clip-path="url(#_clip1)">
    <path
      id="bg"
      d="M120,0l103.923,60l0,120l-103.923,60l-103.923,-60l0,-120l103.923,-60Z"
      style="fill:#808080;"
    />
    <path
      d="M42.058,45l51.961,30l0,90l-25.981,15l51.962,30l51.962,-30l-25.981,-15l0,-90l51.961,-30l25.981,15l0,120l-103.923,60l-103.923,-60l0,-120l25.981,-15Z"
    />
    <path
      d="M94.019,27.857l0,-12.857l25.981,-15l25.981,15l0,30l-12.991,7.5l0,30l-12.99,7.5l-12.99,-7.5l0,-27.857l38.971,-22.5l0,-4.286l-40.827,23.572l-9.279,-5.358l50.106,-28.928l0,-2.143l-1.856,-1.071l-50.106,28.928l0,-10.714l40.827,-23.572l-3.711,-2.142l-37.116,21.428Z"
      style="fill:#fff;"
    />
  </g>
</svg>
