<?xml version="1.0" encoding="UTF-8" standalone="no"?><!DOCTYPE svg PUBLIC "-//W3C//DTD SVG 1.1//EN" "http://www.w3.org/Graphics/SVG/1.1/DTD/svg11.dtd"><svg width="100%" height="100%" viewBox="0 0 240 240" version="1.1" xmlns="http://www.w3.org/2000/svg" xmlns:xlink="http://www.w3.org/1999/xlink" xml:space="preserve" xmlns:serif="http://www.serif.com/" style="fill-rule:evenodd;clip-rule:evenodd;stroke-linejoin:round;stroke-miterlimit:2;"><rect id="fag" x="0" y="0" width="240" height="240" style="fill:none;"/><clipPath id="_clip1"><rect x="0" y="0" width="240" height="240"/></clipPath><g clip-path="url(#_clip1)"><rect x="0" y="0" width="240" height="240" style="fill:#808080;"/><path d="M33.397,0l20.785,12l0,24l-20.785,12l-20.784,-12l0,-24l20.784,-12Z" style="fill:#fff;"/><g id="v2"><path d="M68.038,210l-51.961,-30l0,-120l51.961,-30l51.962,30l51.962,-30l51.961,30l0,120l-51.961,30l-25.981,-15l51.961,-30l0,-90l-25.98,-15l-25.981,15l25.981,15l0,60l-51.962,30l-51.962,-30l0,-60l25.981,-15l-25.981,-15l-25.98,15l0,90l51.961,30l-25.981,15Zm51.962,-120l25.981,15l0,30l-25.981,15l-25.981,-15l0,-30l25.981,-15Z" style="fill:#545454;"/><g><path d="M85.359,220l8.66,-5l25.981,15l25.981,-15l8.66,5l-34.641,20l-34.641,-20Z" style="fill:#bfbfbf;"/><path d="M85.359,20l8.66,5l25.981,-15l25.981,15l8.66,-5l-34.641,-20l-34.641,20Z" style="fill:#bfbfbf;"/></g></g><g id="small"><path d="M23.005,42l-10.392,-6l0,-24l10.392,-6l10.392,6l10.393,-6l10.392,6l0,24l-10.392,6l-5.196,-3l10.392,-6l0,-18l-5.196,-3l-5.196,3l5.196,3l0,12l-10.393,6l-10.392,-6l0,-12l5.196,-3l-5.196,-3l-5.196,3l0,18l10.392,6l-5.196,3Zm10.392,-24l5.197,3l0,6l-5.197,3l-5.196,-3l0,-6l5.196,-3Z" style="fill:#545454;"/><g><path d="M26.469,44l1.732,-1l5.196,3l5.197,-3l1.732,1l-6.929,4l-6.928,-4Z" style="fill:#bfbfbf;"/><path d="M26.469,4l1.732,1l5.196,-3l5.197,3l1.732,-1l-6.929,-4l-6.928,4Z" style="fill:#bfbfbf;"/></g></g></g></svg>