<?xml version="1.0" encoding="UTF-8" standalone="no" ?>
<!DOCTYPE svg PUBLIC "-//W3C//DTD SVG 1.1//EN"
  "http://www.w3.org/Graphics/SVG/1.1/DTD/svg11.dtd">
<svg
  width="100%"
  height="100%"
  viewBox="0 0 240 240"
  version="1.1"
  xmlns="http://www.w3.org/2000/svg"
  xmlns:xlink="http://www.w3.org/1999/xlink"
  xml:space="preserve"
  xmlns:serif="http://www.serif.com/"
  style="fill-rule:evenodd;clip-rule:evenodd;stroke-linejoin:round;stroke-miterlimit:2;"
>
  <rect
    id="golden_circle"
    x="0"
    y="0"
    width="240"
    height="240"
    style="fill:none;"
  />
  <clipPath id="_clip1">
    <rect x="0" y="0" width="240" height="240" />
  </clipPath>
  <g clip-path="url(#_clip1)">
    <g id="v2">
      <path
        d="M60,16.077l120,0l60,103.923l-60,103.923l-120,0l-60,-103.923l60,-103.923Z"
        style="fill:#8a718e;"
      />
      <path
        d="M60,16.077l60,34.641l60,-34.641l0,69.282l60,34.641l-60,34.641l0,69.282l-60,-34.641l-60,34.641l0,-69.282l-60,-34.641l60,-34.641l0,-69.282Z"
        style="fill:#58a4d7;"
      />
      <path
        d="M60,85.359l60,-34.641l60,34.641l0,69.282l-60,34.641l-60,-34.641l0,-69.282Z"
        style="fill:#c4f20d;"
      />
    </g>
  </g>
</svg>
