<?xml version="1.0" encoding="UTF-8" standalone="no" ?>
<!DOCTYPE svg PUBLIC "-//W3C//DTD SVG 1.1//EN"
  "http://www.w3.org/Graphics/SVG/1.1/DTD/svg11.dtd">
<svg
  width="100%"
  height="100%"
  viewBox="0 0 240 240"
  version="1.1"
  xmlns="http://www.w3.org/2000/svg"
  xmlns:xlink="http://www.w3.org/1999/xlink"
  xml:space="preserve"
  xmlns:serif="http://www.serif.com/"
  style="fill-rule:evenodd;clip-rule:evenodd;stroke-linejoin:round;stroke-miterlimit:2;"
>
  <rect id="hatsume" x="0" y="0" width="240" height="240" style="fill:none;" />
  <g>
    <path
      d="M117.999,1.155c1.238,-0.715 2.763,-0.715 4,0c13.124,7.577 86.799,50.113 99.923,57.69c1.238,0.715 2,2.035 2,3.464c0,16.117 0,111.13 0,111.13c0,2.984 -1.185,5.845 -3.294,7.954c-2.11,2.109 -4.971,3.295 -7.954,3.294c-0.001,0 -0.002,0 -0.004,0.001c-2.983,0 -5.844,-1.186 -7.953,-3.295c-2.11,-2.109 -3.295,-4.97 -3.295,-7.954l0,-98.139c0,-1.429 -0.762,-2.75 -2,-3.464c-11.217,-6.476 -66.206,-38.224 -77.423,-44.701c-1.237,-0.714 -2.762,-0.714 -4,0c-11.217,6.477 -66.206,38.225 -77.423,44.701c-1.237,0.714 -2,2.035 -2,3.464c0,15.013 0,98.137 0,98.137c0,2.984 -1.185,5.846 -3.295,7.955c-2.11,2.11 -4.971,3.295 -7.955,3.295c0,0 0,0 0,0.001c-2.984,0 -5.845,-1.186 -7.955,-3.296c-2.11,-2.109 -3.295,-4.971 -3.295,-7.955l0,-111.128c0,-1.429 0.763,-2.749 2,-3.464c13.124,-7.577 86.799,-50.113 99.923,-57.69Zm94.673,140.489c3.881,0 7.032,3.15 7.032,7.031c0,3.881 -3.151,7.031 -7.032,7.031c-3.88,0 -7.031,-3.15 -7.031,-7.031c0,-3.881 3.151,-7.031 7.031,-7.031Zm-185.437,0c3.881,0 7.031,3.15 7.031,7.031c0,3.881 -3.15,7.031 -7.031,7.031c-3.881,0 -7.031,-3.15 -7.031,-7.031c0,-3.881 3.15,-7.031 7.031,-7.031Zm185.437,-20.544c3.881,0 7.032,3.15 7.032,7.031c0,3.881 -3.151,7.031 -7.032,7.031c-3.88,0 -7.031,-3.15 -7.031,-7.031c0,-3.881 3.151,-7.031 7.031,-7.031Zm-185.437,0c3.881,0 7.031,3.15 7.031,7.031c0,3.881 -3.15,7.031 -7.031,7.031c-3.881,0 -7.031,-3.15 -7.031,-7.031c0,-3.881 3.15,-7.031 7.031,-7.031Zm185.437,-20.544c3.881,0 7.032,3.151 7.032,7.031c0,3.881 -3.151,7.032 -7.032,7.032c-3.88,0 -7.031,-3.151 -7.031,-7.032c0,-3.88 3.151,-7.031 7.031,-7.031Zm-185.437,0c3.881,0 7.031,3.151 7.031,7.031c0,3.881 -3.15,7.032 -7.031,7.032c-3.881,0 -7.031,-3.151 -7.031,-7.032c0,-3.88 3.15,-7.031 7.031,-7.031Zm185.437,-20.544c3.881,0 7.032,3.151 7.032,7.031c0,3.881 -3.151,7.032 -7.032,7.032c-3.88,0 -7.031,-3.151 -7.031,-7.032c0,-3.88 3.151,-7.031 7.031,-7.031Zm-185.437,0c3.881,0 7.031,3.151 7.031,7.031c0,3.881 -3.15,7.032 -7.031,7.032c-3.881,0 -7.031,-3.151 -7.031,-7.032c0,-3.88 3.15,-7.031 7.031,-7.031Zm0.035,-20.544c-3.881,0 -7.031,3.151 -7.031,7.032c0,3.88 3.15,7.031 7.031,7.031c3.88,0 7.031,-3.151 7.031,-7.031c0,-3.881 -3.151,-7.032 -7.031,-7.032Zm185.459,0c3.88,0 7.031,3.151 7.031,7.032c0,3.88 -3.151,7.031 -7.031,7.031c-3.881,0 -7.032,-3.151 -7.032,-7.031c0,-3.881 3.151,-7.032 7.032,-7.032Zm-18.544,-10.706c3.881,0 7.032,3.151 7.032,7.032c0,3.88 -3.151,7.031 -7.032,7.031c-3.88,0 -7.031,-3.151 -7.031,-7.031c0,-3.881 3.151,-7.032 7.031,-7.032Zm-148.372,0c-3.881,0 -7.031,3.151 -7.031,7.032c0,3.88 3.15,7.031 7.031,7.031c3.881,0 7.031,-3.151 7.031,-7.031c0,-3.881 -3.15,-7.032 -7.031,-7.032Z"
      style="fill:#a7a7a7;"
    />
    <path
      d="M204.59,165.663c2.188,-2.29 5.326,-3.647 8.734,-3.458c6.182,0.342 10.923,5.638 10.581,11.82c-0.222,4.017 -2.536,7.425 -5.826,9.226l-50.327,29.3c-0.789,0.46 -1.795,0.278 -2.373,-0.429c-0.578,-0.707 -0.557,-1.729 0.049,-2.411c0,0 38.976,-43.853 39.161,-44.047l0.001,-0.001Z"
      style="fill:#666;"
    />
    <path
      d="M21.61,183.075c-3.125,-1.842 -5.302,-5.162 -5.517,-9.052c-0.341,-6.181 4.401,-11.477 10.583,-11.818c3.408,-0.188 6.546,1.169 8.734,3.46l0,0c0.186,0.194 38.996,43.875 38.996,43.875c0.619,0.696 0.64,1.739 0.05,2.461c-0.59,0.721 -1.616,0.906 -2.422,0.437l-50.328,-29.307l-0.044,-0.025l-0.048,-0.028l-0.004,-0.003Z"
      style="fill:#666;"
    />
    <path
      d="M141.184,12.231c0,0 -13.906,-8.028 -19.185,-11.076c-1.237,-0.715 -2.762,-0.715 -4,0c-5.279,3.047 -19.184,11.075 -19.184,11.075l0,85.396l42.369,0l0,-85.395Z"
      style="fill:#4d4d4d;"
    />
    <path
      d="M184.224,39.389c0,-1.429 -0.763,-2.749 -2,-3.464c-9.574,-5.527 -50.651,-29.243 -60.225,-34.77c-1.237,-0.715 -2.762,-0.715 -4,0c-9.573,5.527 -50.649,29.242 -60.223,34.769c-1.237,0.715 -2,2.036 -2,3.465c0,7.916 0,34.175 0,46.987c0,6.213 5.037,11.25 11.25,11.25l105.95,0c2.983,0 5.844,-1.185 7.953,-3.295c2.11,-2.109 3.295,-4.97 3.295,-7.953l0,-46.989Zm-11.247,39.937c3.881,0 7.031,3.151 7.031,7.032c0,3.88 -3.15,7.031 -7.031,7.031c-3.881,0 -7.031,-3.151 -7.031,-7.031c0,-3.881 3.15,-7.032 7.031,-7.032Zm-105.953,-0.002c3.88,0 7.031,3.151 7.031,7.031c0,3.881 -3.151,7.032 -7.031,7.032c-3.881,0 -7.032,-3.151 -7.032,-7.032c0,-3.88 3.151,-7.031 7.032,-7.031Zm21.19,0c3.881,0 7.032,3.151 7.032,7.031c0,3.881 -3.151,7.032 -7.032,7.032c-3.88,0 -7.031,-3.151 -7.031,-7.032c0,-3.88 3.151,-7.031 7.031,-7.031Zm63.572,0c3.881,0 7.031,3.151 7.031,7.031c0,3.881 -3.15,7.032 -7.031,7.032c-3.88,0 -7.031,-3.151 -7.031,-7.032c0,-3.88 3.151,-7.031 7.031,-7.031Zm9.932,-27.023c0,-1.429 -0.762,-2.749 -2,-3.464c-7.046,-4.068 -30.672,-17.708 -37.718,-21.777c-1.238,-0.714 -2.762,-0.714 -4,0c-7.046,4.069 -30.673,17.709 -37.72,21.777c-1.237,0.715 -2,2.035 -2,3.465l0,18.824c0,1.06 0.422,2.078 1.172,2.828c0.75,0.75 1.768,1.172 2.828,1.172c14.093,0 61.345,0 75.438,0c1.061,0 2.078,-0.422 2.828,-1.172c0.751,-0.75 1.172,-1.768 1.172,-2.828c0,-5.318 0,-14.541 0,-18.825Zm11.259,5.643c3.881,0 7.031,3.15 7.031,7.031c0,3.881 -3.15,7.031 -7.031,7.031c-3.881,0 -7.031,-3.15 -7.031,-7.031c0,-3.881 3.15,-7.031 7.031,-7.031Zm-105.953,-0.001c3.88,0 7.031,3.15 7.031,7.031c0,3.881 -3.151,7.031 -7.031,7.031c-3.881,0 -7.032,-3.15 -7.032,-7.031c0,-3.881 3.151,-7.031 7.032,-7.031Z"
      style="fill:#666;"
    />
  </g>
  <g>
    <path
      d="M210.854,171.557l0,-3.281c0,-0.497 0.197,-0.974 0.549,-1.326c0.351,-0.352 0.828,-0.549 1.326,-0.549c0,0 0,0 0.001,0c0.497,0 0.973,0.197 1.325,0.549c0.351,0.351 0.549,0.828 0.549,1.325l0,3.282l3.282,0c0.497,0 0.973,0.198 1.325,0.549c0.351,0.351 0.549,0.828 0.549,1.325c0,0 0,0.001 0,0.001c0,0.497 -0.198,0.974 -0.549,1.326c-0.352,0.352 -0.829,0.549 -1.326,0.549l-3.281,0l0,3.282c0,0.497 -0.198,0.974 -0.549,1.325c-0.352,0.352 -0.828,0.549 -1.325,0.549c-0.001,0 -0.001,0 -0.001,0c-0.498,0 -0.975,-0.197 -1.326,-0.549c-0.352,-0.351 -0.549,-0.828 -0.549,-1.326l0,-3.281l-3.282,0c-0.497,0 -0.974,-0.197 -1.326,-0.549c-0.351,-0.352 -0.549,-0.829 -0.549,-1.326c0,0 0,-0.001 0,-0.001c0,-0.497 0.198,-0.974 0.549,-1.325c0.352,-0.351 0.828,-0.549 1.325,-0.549l3.283,0Z"
    />
    <path
      d="M25.36,171.568l0,-3.281c0,-0.498 0.198,-0.975 0.549,-1.326c0.352,-0.352 0.829,-0.549 1.326,-0.549c0,0 0.001,0 0.001,0c0.497,0 0.974,0.197 1.325,0.549c0.352,0.351 0.549,0.828 0.549,1.325l0,3.282l3.282,0c0.497,0 0.974,0.197 1.325,0.549c0.352,0.351 0.549,0.828 0.549,1.325c0,0 0,0.001 0,0.001c0,0.497 -0.197,0.974 -0.549,1.326c-0.352,0.351 -0.829,0.549 -1.326,0.549l-3.281,0l0,3.282c0,0.497 -0.197,0.974 -0.549,1.325c-0.351,0.352 -0.828,0.549 -1.325,0.549c0,0 -0.001,0 -0.001,0c-0.497,0 -0.974,-0.197 -1.326,-0.549c-0.351,-0.352 -0.549,-0.829 -0.549,-1.326l0,-3.281l-3.281,0c-0.498,0 -0.974,-0.198 -1.326,-0.549c-0.352,-0.352 -0.549,-0.829 -0.549,-1.326c0,0 0,-0.001 0,-0.001c0,-0.497 0.197,-0.974 0.549,-1.325c0.351,-0.352 0.828,-0.549 1.325,-0.549l3.282,0Z"
    />
    <g>
      <circle cx="137.667" cy="23.178" r="7.031" />
      <circle cx="155.322" cy="33.385" r="7.031" />
      <circle cx="172.977" cy="43.592" r="7.031" />
      <circle cx="102.331" cy="23.178" r="7.031" />
      <circle cx="119.986" cy="12.97" r="7.031" />
      <circle cx="84.676" cy="33.385" r="7.031" />
      <circle cx="67.022" cy="43.592" r="7.031" />
    </g>
    <circle cx="109.405" cy="86.355" r="7.031" />
    <circle cx="130.596" cy="86.355" r="7.031" />
  </g>
  <g>
    <path
      d="M62.679,119.714c6.582,-7.845 17.024,-9.937 23.303,-4.668c6.278,5.268 6.032,15.915 -0.551,23.759c-6.582,7.845 -17.024,9.937 -23.303,4.668c-6.278,-5.269 -6.032,-15.915 0.551,-23.759Z"
      style="fill:#8255ad;"
    />
    <path
      d="M177.321,119.712c-6.584,-7.843 -17.026,-9.933 -23.304,-4.664c-6.278,5.27 -6.03,15.916 0.554,23.76c6.583,7.843 17.025,9.933 23.303,4.664c6.278,-5.27 6.03,-15.916 -0.553,-23.76Z"
      style="fill:#8255ad;"
    />
    <path
      d="M66.012,122.511c4.654,-5.546 12.036,-7.025 16.475,-3.3c4.439,3.725 4.264,11.251 -0.389,16.797c-4.654,5.546 -12.036,7.025 -16.475,3.3c-4.439,-3.725 -4.264,-11.251 0.389,-16.797Z"
      style="fill:#fff;"
    />
    <path
      d="M173.987,122.51c-4.654,-5.545 -12.036,-7.023 -16.475,-3.297c-4.438,3.725 -4.262,11.251 0.392,16.797c4.654,5.545 12.036,7.022 16.475,3.297c4.438,-3.725 4.263,-11.252 -0.392,-16.797Z"
      style="fill:#fff;"
    />
    <path
      d="M88.596,113.084c19.432,-11.22 43.374,-11.22 62.806,0c0.001,0 0.001,0 0.001,0c19.433,11.22 31.403,31.954 31.403,54.392l0,0.001c0,22.439 -11.97,43.173 -31.403,54.392c-14.011,8.089 -28.022,16.179 -30.877,17.827c-0.326,0.188 -0.728,0.188 -1.053,0c-2.855,-1.648 -16.867,-9.738 -30.878,-17.827c-19.432,-11.219 -31.403,-31.953 -31.403,-54.392l0,-0.001c0,-22.438 11.971,-43.172 31.403,-54.392c0,0 0.001,0 0.001,0Z"
      style="fill:#a15ee0;"
    />
    <path
      d="M107.847,199.384c-1.139,-0.489 -1.953,-1.302 -2.441,-2.442l0,-1.953l1.953,-2.441c5.208,-1.302 10.172,-3.255 14.892,-5.86c4.72,-2.604 9.034,-5.94 12.94,-10.009c3.418,-4.558 5.778,-9.522 7.08,-14.893c1.302,-5.371 2.604,-10.742 3.906,-16.113c0.814,-0.651 1.872,-0.895 3.174,-0.733c1.139,0.489 1.953,1.302 2.441,2.442l0,3.174c-0.813,6.347 -2.278,12.532 -4.394,18.554c-2.116,6.022 -5.697,11.393 -10.742,16.114c-4.232,3.58 -8.749,6.632 -13.55,9.155c-4.802,2.523 -9.888,4.191 -15.259,5.005Zm-5.371,-30.518c-1.139,-0.488 -1.953,-1.302 -2.441,-2.441c-0.326,-2.767 -0.896,-5.412 -1.709,-7.935c-0.814,-2.523 -1.384,-5.168 -1.709,-7.934c0.488,-1.14 1.302,-1.954 2.441,-2.442l1.953,0l2.442,2.197c0.813,2.605 1.546,5.209 2.197,7.813c0.651,2.604 1.058,5.371 1.221,8.301c-0.489,1.139 -1.303,1.953 -2.442,2.441l-1.953,0Zm19.043,-1.709l-2.686,-1.465c-0.813,-2.929 -1.424,-5.981 -1.831,-9.155c-0.407,-3.174 -0.854,-6.307 -1.342,-9.399c0.488,-1.14 1.302,-1.954 2.441,-2.442l1.953,0c1.139,0.488 1.953,1.302 2.442,2.442l2.685,17.334c-0.488,1.139 -1.302,1.953 -2.441,2.441l-1.221,0.244Z"
      style="fill:#fff;fill-rule:nonzero;"
    />
  </g>
</svg>
