<?xml version="1.0" encoding="UTF-8" standalone="no" ?>
<!DOCTYPE svg PUBLIC "-//W3C//DTD SVG 1.1//EN"
  "http://www.w3.org/Graphics/SVG/1.1/DTD/svg11.dtd">
<svg
  width="100%"
  height="100%"
  viewBox="0 0 240 240"
  version="1.1"
  xmlns="http://www.w3.org/2000/svg"
  xmlns:xlink="http://www.w3.org/1999/xlink"
  xml:space="preserve"
  xmlns:serif="http://www.serif.com/"
  style="fill-rule:evenodd;clip-rule:evenodd;stroke-linejoin:round;stroke-miterlimit:2;"
>
  <rect
    id="portrait-meg"
    x="0"
    y="0"
    width="240"
    height="240"
    style="fill:none;"
  />
  <clipPath id="_clip1">
    <rect x="0" y="0" width="240" height="240" />
  </clipPath>
  <g clip-path="url(#_clip1)">
    <path
      d="M120,0l103.923,60l0,120l-103.923,60l-103.923,-60l0,-120l103.923,-60Z"
      style="fill:#808080;"
    />
    <g id="body">
      <path
        d="M42.058,195l51.961,-30l51.962,0l51.961,30l-77.942,45l-77.942,-45Z"
      />
      <path d="M59.378,185l-8.66,-5l0,-40l17.32,-10l43.302,25l-51.962,30Z" />
      <path d="M171.962,180l8.66,-5l0,-30l-8.66,-5l-34.641,20l34.641,20Z" />
      <path
        d="M94.019,185l17.321,10l0,20l8.66,5l8.66,-5l0,-20l17.321,-10l0,-20l-51.962,0l0,20Z"
        style="fill:#e6e6e6;"
      />
    </g>
    <path
      id="head"
      d="M120,60l51.962,30l0,60l-51.962,30l-43.301,-25l0,-70l43.301,-25Z"
      style="fill:#fff;"
    />
    <g id="hair">
      <path
        d="M68.038,70l51.962,-30l69.282,40l0,100l-8.66,5l0,20l-43.301,25l0,-60l17.32,-10l0,-60l-17.32,-10l0,-20l-17.321,-10l-17.321,10l-25.98,15l0,70l17.32,10l-17.32,10l-8.661,-5l0,-100Z"
        style="fill:#382a19;"
      />
    </g>
    <g id="darken">
      <path
        d="M120,180l34.641,-20l0,-60l-17.32,-10l0,-20l-17.321,-10l0,120Z"
        style="fill-opacity:0.12;"
      />
      <path
        d="M120,220l8.66,-5l0,-20l8.661,-5l0,-20l-17.321,10l0,40Z"
        style="fill-opacity:0.12;"
      />
      <path
        d="M120,240l-77.942,-45l43.301,-25l8.66,-5l0,20l17.321,10l0,20l8.66,5l0,20Z"
        style="fill:#fff;fill-opacity:0.12;"
      />
      <path
        d="M120,60l0,-20l69.282,40l0,100l-8.66,5l0,20l-43.301,25l0,-60l17.32,-10l0,-60l-17.32,-10l0,-20l-17.321,-10Z"
        style="fill-opacity:0.12;"
      />
    </g>
  </g>
</svg>
