<?xml version="1.0" encoding="UTF-8" standalone="no" ?>
<!DOCTYPE svg PUBLIC "-//W3C//DTD SVG 1.1//EN"
  "http://www.w3.org/Graphics/SVG/1.1/DTD/svg11.dtd">
<svg
  width="100%"
  height="100%"
  viewBox="0 0 240 240"
  version="1.1"
  xmlns="http://www.w3.org/2000/svg"
  xmlns:xlink="http://www.w3.org/1999/xlink"
  xml:space="preserve"
  xmlns:serif="http://www.serif.com/"
  style="fill-rule:evenodd;clip-rule:evenodd;stroke-linejoin:round;stroke-miterlimit:2;"
>
  <rect id="projects" x="0" y="0" width="240" height="240" style="fill:none;" />
  <clipPath id="_clip1">
    <rect x="0" y="0" width="240" height="240" />
  </clipPath>
  <g clip-path="url(#_clip1)">
    <g id="v0">
      <path
        d="M120,120l-103.923,-60l103.923,-60l0,120Z"
        style="fill:#ede5c7;"
      />
      <path
        d="M102.679,106l-81.406,-47l95.263,-55l0,94l-13.857,8Z"
        style="fill:#fbedb8;"
      />
      <g id="blocks">
        <g>
          <g>
            <path
              d="M104.412,105l-29.445,-17l18.186,-10.5l14.723,25.5l-3.464,2Z"
              style="fill:#ccc095;"
            />
            <path
              d="M97.483,95l-10.392,-6l5.196,-3l5.196,9Z"
              style="fill:#7bb756;"
            />
          </g>
          <g>
            <path
              d="M111.34,101l-14.723,-25.5l19.919,-11.5l0,34l-5.196,3Z"
              style="fill:#ccc095;"
            />
            <path
              d="M104.412,79l5.196,-3l0,12l-5.196,-9Z"
              style="fill:#7bb756;"
            />
          </g>
        </g>
        <g>
          <g>
            <path
              d="M85.359,42l29.445,17l0,2l-19.919,11.5l-15.588,-27l6.062,-3.5Z"
              style="fill:#ccc095;"
            />
            <path
              d="M87.091,49l17.321,10l-8.661,5l-8.66,-15Z"
              style="fill:#7bb756;"
            />
          </g>
          <g>
            <path
              d="M69.771,51l6.062,-3.5l15.588,27l-19.918,11.5l-1.732,-1l0,-34Z"
              style="fill:#ccc095;"
            />
            <path d="M83.627,71l-8.66,5l0,-20l8.66,15Z" style="fill:#7bb756;" />
          </g>
        </g>
        <g>
          <g>
            <path
              d="M66.306,51l0,32l-19.918,-11.5l13.856,-24l6.062,3.5Z"
              style="fill:#ccc095;"
            />
            <path
              d="M61.11,56l0,18l-7.794,-4.5l7.794,-13.5Z"
              style="fill:#7bb756;"
            />
          </g>
          <g>
            <path
              d="M50.718,42l6.062,3.5l-13.856,24l-19.919,-11.5l27.713,-16Z"
              style="fill:#ccc095;"
            />
            <path
              d="M41.192,62.5l-7.795,-4.5l15.589,-9l-7.794,13.5Z"
              style="fill:#7bb756;"
            />
          </g>
        </g>
        <g>
          <g>
            <path
              d="M87.091,21l27.713,-16l0,23l-27.713,0l0,-7Z"
              style="fill:#ccc095;"
            />
            <path
              d="M94.019,23l15.589,-9l0,9l-15.589,0Z"
              style="fill:#7bb756;"
            />
          </g>
          <g>
            <path
              d="M87.091,39l0,-7l27.713,0l0,23l-27.713,-16Z"
              style="fill:#ccc095;"
            />
            <path
              d="M109.608,37l0,9l-15.589,-9l15.589,0Z"
              style="fill:#7bb756;"
            />
          </g>
        </g>
      </g>
      <path
        id="park"
        d="M68.038,48l15.589,-9l0,-18l-31.177,18l15.588,9Z"
        style="fill:#7bb756;"
      />
      <g id="roads">
        <path
          d="M106.144,112l13.856,-8l0,-8l-20.785,12l6.929,4Z"
          style="fill:#efcd44;"
        />
        <path
          d="M114.804,99l0,-96l3.464,-2l0,96l-3.464,2Z"
          style="fill:#efcd44;"
        />
        <path d="M120,98l0,-96l-1.732,1l0,94l1.732,1Z" style="fill:#7bb756;" />
        <path
          d="M104.412,109l-86.603,-50l3.464,-2l86.603,50l-3.464,2Z"
          style="fill:#efcd44;"
        />
        <path
          d="M16.077,60l86.602,50l0,-2l-84.87,-49l-1.732,1Z"
          style="fill:#7bb756;"
        />
      </g>
      <g id="mass-transit" serif:id="mass transit" opacity="0.5">
        <path
          d="M66.306,31l0,54l1.732,-1l1.733,1l0,-54l-1.733,-1l-1.732,1Z"
          style="fill:#456ecd;"
        />
        <path
          d="M68.038,32l50.23,29l1.732,-3l-50.229,-29l-1.733,1l0,2Z"
          style="fill:#456ecd;"
        />
        <path
          d="M118.268,59l-46.765,27l1.732,1l0,2l46.765,-27l-1.732,-3Z"
          style="fill:#456ecd;"
        />
        <path d="M120,66l-5.196,-3l0,-6l5.196,-3l0,12Z" style="fill:#456ecd;" />
        <path
          d="M16.077,60l51.961,-30l0,2l-50.229,29l-1.732,-1Z"
          style="fill:#456ecd;"
        />
        <path
          d="M69.771,31l-1.733,-1l51.962,-30l0,2l-50.229,29Z"
          style="fill:#456ecd;"
        />
        <path
          d="M68.038,84l5.197,3l0,6l-10.393,-6l5.196,-3Z"
          style="fill:#456ecd;"
        />
      </g>
    </g>
    <g id="v1">
      <path
        d="M120,120l-103.923,-60l103.923,-60l0,120Z"
        style="fill:#ede5c7;"
      />
      <path
        d="M113.072,112l-91.799,-53l95.263,-55l0,106l-3.464,2Z"
        style="fill:#fbedb8;"
      />
      <g id="blocks1" serif:id="blocks">
        <g>
          <g>
            <path
              d="M107.876,107l-32.909,-19l18.186,-10.5l16.455,28.5l-1.732,1Z"
              style="fill:#ccc095;"
            />
            <path
              d="M97.483,95l-10.392,-6l5.196,-3l5.196,9Z"
              style="fill:#7bb756;"
            />
          </g>
          <g>
            <path
              d="M113.072,104l-16.455,-28.5l18.187,-10.5l0,38l-1.732,1Z"
              style="fill:#ccc095;"
            />
            <path
              d="M104.412,79l5.196,-3l0,12l-5.196,-9Z"
              style="fill:#7bb756;"
            />
          </g>
        </g>
        <g>
          <g>
            <path
              d="M85.359,42l27.713,16l0,4l-18.187,10.5l-15.588,-27l6.062,-3.5Z"
              style="fill:#ccc095;"
            />
            <path
              d="M87.091,49l17.321,10l-8.661,5l-8.66,-15Z"
              style="fill:#7bb756;"
            />
          </g>
          <g>
            <path
              d="M69.771,51l6.062,-3.5l15.588,27l-18.186,10.5l-3.464,-2l0,-32Z"
              style="fill:#ccc095;"
            />
            <path d="M83.627,71l-8.66,5l0,-20l8.66,15Z" style="fill:#7bb756;" />
          </g>
        </g>
        <g>
          <g>
            <path
              d="M66.306,51l0,32l-19.918,-11.5l13.856,-24l6.062,3.5Z"
              style="fill:#ccc095;"
            />
            <path
              d="M61.11,56l0,18l-7.794,-4.5l7.794,-13.5Z"
              style="fill:#7bb756;"
            />
          </g>
          <g>
            <path
              d="M50.718,42l6.062,3.5l-13.856,24l-19.919,-11.5l27.713,-16Z"
              style="fill:#ccc095;"
            />
            <path
              d="M41.192,62.5l-7.795,-4.5l15.589,-9l-7.794,13.5Z"
              style="fill:#7bb756;"
            />
          </g>
        </g>
        <g>
          <g>
            <path
              d="M87.091,21l27.713,-16l0,23l-27.713,0l0,-7Z"
              style="fill:#ccc095;"
            />
            <path
              d="M94.019,23l15.589,-9l0,9l-15.589,0Z"
              style="fill:#7bb756;"
            />
          </g>
          <g>
            <path
              d="M87.091,39l0,-7l27.713,0l0,23l-27.713,-16Z"
              style="fill:#ccc095;"
            />
            <path
              d="M109.608,37l0,9l-15.589,-9l15.589,0Z"
              style="fill:#7bb756;"
            />
          </g>
        </g>
      </g>
      <path
        id="park1"
        serif:id="park"
        d="M68.038,48l15.589,-9l0,-18l-31.177,18l15.588,9Z"
        style="fill:#7bb756;"
      />
      <g id="roads1" serif:id="roads">
        <path
          d="M109.608,114l10.392,-6l0,-8l-1.732,-1l0,2l-13.856,8l-1.733,-1l0,2l6.929,4Z"
          style="fill:#efcd44;"
        />
        <path
          d="M114.804,103l0,-100l3.464,-2l0,100l-3.464,2Z"
          style="fill:#efcd44;"
        />
        <path d="M120,100l0,-98l-1.732,1l0,96l1.732,1Z" style="fill:#7bb756;" />
        <path
          d="M104.412,109l-86.603,-50l3.464,-2l86.603,50l-3.464,2Z"
          style="fill:#efcd44;"
        />
        <path
          d="M16.077,60l86.602,50l0,-2l-84.87,-49l-1.732,1Z"
          style="fill:#7bb756;"
        />
      </g>
      <g id="mass-transit1" serif:id="mass transit">
        <path
          d="M66.306,31l0,54l1.732,-1l1.733,1l0,-54l-1.733,-1l-1.732,1Z"
          style="fill:#58a4d7;"
        />
        <path
          d="M68.038,32l50.23,29l1.732,-3l-50.229,-29l-1.733,1l0,2Z"
          style="fill:#58a4d7;"
        />
        <path
          d="M118.268,59l-46.765,27l1.732,1l0,2l46.765,-27l-1.732,-3Z"
          style="fill:#58a4d7;"
        />
        <path d="M120,68l-6.928,-4l0,-8l6.928,-4l0,16Z" style="fill:#58a4d7;" />
        <path
          d="M16.077,60l51.961,-30l0,2l-50.229,29l-1.732,-1Z"
          style="fill:#58a4d7;"
        />
        <path
          d="M69.771,31l-1.733,-1l51.962,-30l0,2l-50.229,29Z"
          style="fill:#58a4d7;"
        />
        <path
          d="M68.038,82l6.929,4l0,8l-13.857,-8l6.928,-4Z"
          style="fill:#58a4d7;"
        />
      </g>
    </g>
    <g id="v11" serif:id="v1">
      <path d="M120,120l0,-120l103.923,60l-103.923,60Z" style="fill:#ede5c7;" />
      <path
        d="M123.464,110l0,-106l95.263,55l-91.799,53l-3.464,-2Z"
        style="fill:#fbedb8;"
      />
      <g id="blocks2" serif:id="blocks">
        <g>
          <g>
            <path
              d="M125.196,103l0,-38l18.187,10.5l-16.455,28.5l-1.732,-1Z"
              style="fill:#ccc095;"
            />
            <path
              d="M130.392,88l0,-12l5.196,3l-5.196,9Z"
              style="fill:#7bb756;"
            />
          </g>
          <g>
            <path
              d="M130.392,106l16.455,-28.5l18.186,10.5l-32.909,19l-1.732,-1Z"
              style="fill:#ccc095;"
            />
            <path
              d="M147.713,86l5.196,3l-10.392,6l5.196,-9Z"
              style="fill:#7bb756;"
            />
          </g>
        </g>
        <g>
          <g>
            <path
              d="M170.229,51l0,32l-3.464,2l-18.186,-10.5l15.588,-27l6.062,3.5Z"
              style="fill:#ccc095;"
            />
            <path
              d="M165.033,56l0,20l-8.66,-5l8.66,-15Z"
              style="fill:#7bb756;"
            />
          </g>
          <g>
            <path
              d="M154.641,42l6.062,3.5l-15.588,27l-18.187,-10.5l0,-4l27.713,-16Z"
              style="fill:#ccc095;"
            />
            <path
              d="M144.249,64l-8.661,-5l17.321,-10l-8.66,15Z"
              style="fill:#7bb756;"
            />
          </g>
        </g>
        <g>
          <g>
            <path
              d="M152.909,39l-27.713,16l0,-23l27.713,0l0,7Z"
              style="fill:#ccc095;"
            />
            <path
              d="M145.981,37l-15.589,9l0,-9l15.589,0Z"
              style="fill:#7bb756;"
            />
          </g>
          <g>
            <path
              d="M152.909,21l0,7l-27.713,0l0,-23l27.713,16Z"
              style="fill:#ccc095;"
            />
            <path
              d="M130.392,23l0,-9l15.589,9l-15.589,0Z"
              style="fill:#7bb756;"
            />
          </g>
        </g>
        <g>
          <g>
            <path
              d="M189.282,42l27.713,16l-19.919,11.5l-13.856,-24l6.062,-3.5Z"
              style="fill:#ccc095;"
            />
            <path
              d="M191.014,49l15.589,9l-7.795,4.5l-7.794,-13.5Z"
              style="fill:#7bb756;"
            />
          </g>
          <g>
            <path
              d="M173.694,51l6.062,-3.5l13.856,24l-19.918,11.5l0,-32Z"
              style="fill:#ccc095;"
            />
            <path
              d="M186.684,69.5l-7.794,4.5l0,-18l7.794,13.5Z"
              style="fill:#7bb756;"
            />
          </g>
        </g>
      </g>
      <path
        id="park2"
        serif:id="park"
        d="M156.373,39l15.589,9l15.588,-9l-31.177,-18l0,18Z"
        style="fill:#7bb756;"
      />
      <g id="roads2" serif:id="roads">
        <path
          d="M120,108l10.392,6l6.929,-4l0,-2l-1.733,1l-13.856,-8l0,-2l-1.732,1l0,8Z"
          style="fill:#efcd44;"
        />
        <path
          d="M132.124,107l86.603,-50l3.464,2l-86.603,50l-3.464,-2Z"
          style="fill:#efcd44;"
        />
        <path
          d="M137.321,110l84.87,-49l-1.732,-1l-83.138,48l0,2Z"
          style="fill:#7bb756;"
        />
        <path
          d="M121.732,101l0,-100l3.464,2l0,100l-3.464,-2Z"
          style="fill:#efcd44;"
        />
        <path
          d="M120,0l0,100l1.732,-1l0,-98l-1.732,-1Z"
          style="fill:#7bb756;"
        />
      </g>
      <g id="mass-transit2" serif:id="mass transit">
        <path
          d="M170.229,29l-46.765,27l1.732,1l0,2l46.766,-27l0,-2l-1.733,-1Z"
          style="fill:#58a4d7;"
        />
        <path
          d="M170.229,31l0,58l3.465,0l0,-58l-1.732,-1l-1.733,1Z"
          style="fill:#58a4d7;"
        />
        <path
          d="M171.962,88l-46.766,-27l0,2l-1.732,1l46.765,27l1.733,-3Z"
          style="fill:#58a4d7;"
        />
        <path
          d="M165.033,94l0,-8l6.929,-4l6.928,4l-13.857,8Z"
          style="fill:#58a4d7;"
        />
        <path
          d="M120,0l51.962,30l-1.733,1l-50.229,-29l0,-2Z"
          style="fill:#58a4d7;"
        />
        <path
          d="M171.962,32l0,-2l51.961,30l-1.732,1l-50.229,-29Z"
          style="fill:#58a4d7;"
        />
        <path
          d="M126.928,56l0,8l-6.928,4l0,-16l6.928,4Z"
          style="fill:#58a4d7;"
        />
      </g>
    </g>
    <g id="v12" serif:id="v1">
      <path
        d="M120,120l103.923,-60l0,120l-103.923,-60Z"
        style="fill:#ede5c7;"
      />
      <path
        d="M130.392,118l91.799,-53l0,110l-91.799,-53l0,-4Z"
        style="fill:#fbedb8;"
      />
      <g id="blocks3" serif:id="blocks">
        <g>
          <g>
            <path
              d="M137.321,116l32.908,-19l0,21l-32.908,0l0,-2Z"
              style="fill:#ccc095;"
            />
            <path
              d="M152.909,113l10.392,-6l0,6l-10.392,0Z"
              style="fill:#7bb756;"
            />
          </g>
          <g>
            <path
              d="M137.321,122l32.908,0l0,21l-32.908,-19l0,-2Z"
              style="fill:#ccc095;"
            />
            <path
              d="M163.301,127l0,6l-10.392,-6l10.392,0Z"
              style="fill:#7bb756;"
            />
          </g>
        </g>
        <g>
          <g>
            <path
              d="M204.87,129l-27.712,16l-3.464,-2l0,-21l31.176,0l0,7Z"
              style="fill:#ccc095;"
            />
            <path
              d="M197.942,127l-17.32,10l0,-10l17.32,0Z"
              style="fill:#7bb756;"
            />
          </g>
          <g>
            <path
              d="M204.87,111l0,7l-31.176,0l0,-21l3.464,-2l27.712,16Z"
              style="fill:#ccc095;"
            />
            <path
              d="M180.622,113l0,-10l17.32,10l-17.32,0Z"
              style="fill:#7bb756;"
            />
          </g>
        </g>
        <g>
          <g>
            <path
              d="M206.603,108l-27.713,-16l19.918,-11.5l13.857,24l-6.062,3.5Z"
              style="fill:#ccc095;"
            />
            <path
              d="M204.87,101l-15.588,-9l7.794,-4.5l7.794,13.5Z"
              style="fill:#7bb756;"
            />
          </g>
          <g>
            <path
              d="M222.191,99l-6.062,3.5l-13.857,-24l19.919,-11.5l0,32Z"
              style="fill:#ccc095;"
            />
            <path
              d="M209.201,80.5l7.794,-4.5l0,18l-7.794,-13.5Z"
              style="fill:#7bb756;"
            />
          </g>
        </g>
        <g>
          <g>
            <path
              d="M222.191,141l0,32l-19.919,-11.5l13.857,-24l6.062,3.5Z"
              style="fill:#ccc095;"
            />
            <path
              d="M216.995,146l0,18l-7.794,-4.5l7.794,-13.5Z"
              style="fill:#7bb756;"
            />
          </g>
          <g>
            <path
              d="M206.603,132l6.062,3.5l-13.857,24l-19.918,-11.5l27.713,-16Z"
              style="fill:#ccc095;"
            />
            <path
              d="M197.076,152.5l-7.794,-4.5l15.588,-9l-7.794,13.5Z"
              style="fill:#7bb756;"
            />
          </g>
        </g>
      </g>
      <path
        id="park3"
        serif:id="park"
        d="M208.335,111l0,18l15.588,9l0,-36l-15.588,9Z"
        style="fill:#7bb756;"
      />
      <g id="roads3" serif:id="roads">
        <path
          d="M130.392,114l0,12l6.929,4l1.732,-1l-1.732,-1l0,-16l1.732,-1l-1.732,-1l-6.929,4Z"
          style="fill:#efcd44;"
        />
        <path
          d="M137.321,124l86.602,50l0,4l-86.602,-50l0,-4Z"
          style="fill:#efcd44;"
        />
        <path
          d="M137.321,130l84.87,49l0,-2l-83.138,-48l-1.732,1Z"
          style="fill:#7bb756;"
        />
        <path
          d="M137.321,112l86.602,-50l0,4l-86.602,50l0,-4Z"
          style="fill:#efcd44;"
        />
        <path
          d="M223.923,60l-86.602,50l1.732,1l84.87,-49l0,-2Z"
          style="fill:#7bb756;"
        />
      </g>
      <g id="mass-transit3" serif:id="mass transit">
        <path
          d="M223.923,118l-46.765,-27l0,2l-1.732,1l46.765,27l1.732,-1l0,-2Z"
          style="fill:#58a4d7;"
        />
        <path
          d="M222.191,119l-50.229,29l1.732,3l50.229,-29l0,-2l-1.732,-1Z"
          style="fill:#58a4d7;"
        />
        <path
          d="M173.694,149l0,-54l-1.732,1l-1.733,-1l0,54l3.465,0Z"
          style="fill:#58a4d7;"
        />
        <path
          d="M165.033,146l6.929,-4l6.928,4l0,8l-13.857,-8Z"
          style="fill:#58a4d7;"
        />
        <path
          d="M223.923,60l0,60l-1.732,-1l0,-58l1.732,-1Z"
          style="fill:#58a4d7;"
        />
        <path
          d="M222.191,121l1.732,-1l0,60l-1.732,-1l0,-58Z"
          style="fill:#58a4d7;"
        />
        <path
          d="M178.89,94l-6.928,4l-6.929,-4l13.857,-8l0,8Z"
          style="fill:#58a4d7;"
        />
      </g>
    </g>
    <g id="v13" serif:id="v1">
      <path d="M120,120l103.923,60l-103.923,60l0,-120Z" style="fill:#ede5c7;" />
      <path
        d="M126.928,128l91.799,53l-95.263,55l0,-106l3.464,-2Z"
        style="fill:#fbedb8;"
      />
      <g id="blocks4" serif:id="blocks">
        <g>
          <g>
            <path
              d="M132.124,133l32.909,19l-18.186,10.5l-16.455,-28.5l1.732,-1Z"
              style="fill:#ccc095;"
            />
            <path
              d="M142.517,145l10.392,6l-5.196,3l-5.196,-9Z"
              style="fill:#7bb756;"
            />
          </g>
          <g>
            <path
              d="M126.928,136l16.455,28.5l-18.187,10.5l0,-38l1.732,-1Z"
              style="fill:#ccc095;"
            />
            <path
              d="M135.588,161l-5.196,3l0,-12l5.196,9Z"
              style="fill:#7bb756;"
            />
          </g>
        </g>
        <g>
          <g>
            <path
              d="M154.641,198l-27.713,-16l0,-4l18.187,-10.5l15.588,27l-6.062,3.5Z"
              style="fill:#ccc095;"
            />
            <path
              d="M152.909,191l-17.321,-10l8.661,-5l8.66,15Z"
              style="fill:#7bb756;"
            />
          </g>
          <g>
            <path
              d="M170.229,189l-6.062,3.5l-15.588,-27l18.186,-10.5l3.464,2l0,32Z"
              style="fill:#ccc095;"
            />
            <path
              d="M156.373,169l8.66,-5l0,20l-8.66,-15Z"
              style="fill:#7bb756;"
            />
          </g>
        </g>
        <g>
          <g>
            <path
              d="M173.694,189l0,-32l19.918,11.5l-13.856,24l-6.062,-3.5Z"
              style="fill:#ccc095;"
            />
            <path
              d="M178.89,184l0,-18l7.794,4.5l-7.794,13.5Z"
              style="fill:#7bb756;"
            />
          </g>
          <g>
            <path
              d="M189.282,198l-6.062,-3.5l13.856,-24l19.919,11.5l-27.713,16Z"
              style="fill:#ccc095;"
            />
            <path
              d="M198.808,177.5l7.795,4.5l-15.589,9l7.794,-13.5Z"
              style="fill:#7bb756;"
            />
          </g>
        </g>
        <g>
          <g>
            <path
              d="M152.909,219l-27.713,16l0,-23l27.713,0l0,7Z"
              style="fill:#ccc095;"
            />
            <path
              d="M145.981,217l-15.589,9l0,-9l15.589,0Z"
              style="fill:#7bb756;"
            />
          </g>
          <g>
            <path
              d="M152.909,201l0,7l-27.713,0l0,-23l27.713,16Z"
              style="fill:#ccc095;"
            />
            <path
              d="M130.392,203l0,-9l15.589,9l-15.589,0Z"
              style="fill:#7bb756;"
            />
          </g>
        </g>
      </g>
      <path
        id="park4"
        serif:id="park"
        d="M171.962,192l-15.589,9l0,18l31.177,-18l-15.588,-9Z"
        style="fill:#7bb756;"
      />
      <g id="roads4" serif:id="roads">
        <path
          d="M130.392,126l-10.392,6l0,8l1.732,1l0,-2l13.856,-8l1.733,1l0,-2l-6.929,-4Z"
          style="fill:#efcd44;"
        />
        <path
          d="M125.196,137l0,100l-3.464,2l0,-100l3.464,-2Z"
          style="fill:#efcd44;"
        />
        <path
          d="M120,140l0,98l1.732,-1l0,-96l-1.732,-1Z"
          style="fill:#7bb756;"
        />
        <path
          d="M135.588,131l86.603,50l-3.464,2l-86.603,-50l3.464,-2Z"
          style="fill:#efcd44;"
        />
        <path
          d="M223.923,180l-86.602,-50l0,2l84.87,49l1.732,-1Z"
          style="fill:#7bb756;"
        />
      </g>
      <g id="mass-transit4" serif:id="mass transit">
        <path
          d="M173.694,209l0,-54l-1.732,1l-1.733,-1l0,54l1.733,1l1.732,-1Z"
          style="fill:#58a4d7;"
        />
        <path
          d="M171.962,208l-50.23,-29l-1.732,3l50.229,29l1.733,-1l0,-2Z"
          style="fill:#58a4d7;"
        />
        <path
          d="M121.732,181l46.765,-27l-1.732,-1l0,-2l-46.765,27l1.732,3Z"
          style="fill:#58a4d7;"
        />
        <path d="M120,172l6.928,4l0,8l-6.928,4l0,-16Z" style="fill:#58a4d7;" />
        <path
          d="M223.923,180l-51.961,30l0,-2l50.229,-29l1.732,1Z"
          style="fill:#58a4d7;"
        />
        <path
          d="M170.229,209l1.733,1l-51.962,30l0,-2l50.229,-29Z"
          style="fill:#58a4d7;"
        />
        <path
          d="M171.962,158l-6.929,-4l0,-8l13.857,8l-6.928,4Z"
          style="fill:#58a4d7;"
        />
      </g>
    </g>
    <g id="v14" serif:id="v1">
      <path
        d="M120,120l0,120l-103.923,-60l103.923,-60Z"
        style="fill:#ede5c7;"
      />
      <path
        d="M116.536,130l0,106l-95.263,-55l91.799,-53l3.464,2Z"
        style="fill:#fbedb8;"
      />
      <g id="blocks5" serif:id="blocks">
        <g>
          <g>
            <path
              d="M114.804,137l0,38l-18.187,-10.5l16.455,-28.5l1.732,1Z"
              style="fill:#ccc095;"
            />
            <path
              d="M109.608,152l0,12l-5.196,-3l5.196,-9Z"
              style="fill:#7bb756;"
            />
          </g>
          <g>
            <path
              d="M109.608,134l-16.455,28.5l-18.186,-10.5l32.909,-19l1.732,1Z"
              style="fill:#ccc095;"
            />
            <path
              d="M92.287,154l-5.196,-3l10.392,-6l-5.196,9Z"
              style="fill:#7bb756;"
            />
          </g>
        </g>
        <g>
          <g>
            <path
              d="M69.771,189l0,-32l3.464,-2l18.186,10.5l-15.588,27l-6.062,-3.5Z"
              style="fill:#ccc095;"
            />
            <path
              d="M74.967,184l0,-20l8.66,5l-8.66,15Z"
              style="fill:#7bb756;"
            />
          </g>
          <g>
            <path
              d="M85.359,198l-6.062,-3.5l15.588,-27l18.187,10.5l0,4l-27.713,16Z"
              style="fill:#ccc095;"
            />
            <path
              d="M95.751,176l8.661,5l-17.321,10l8.66,-15Z"
              style="fill:#7bb756;"
            />
          </g>
        </g>
        <g>
          <g>
            <path
              d="M87.091,201l27.713,-16l0,23l-27.713,0l0,-7Z"
              style="fill:#ccc095;"
            />
            <path
              d="M94.019,203l15.589,-9l0,9l-15.589,0Z"
              style="fill:#7bb756;"
            />
          </g>
          <g>
            <path
              d="M87.091,219l0,-7l27.713,0l0,23l-27.713,-16Z"
              style="fill:#ccc095;"
            />
            <path
              d="M109.608,217l0,9l-15.589,-9l15.589,0Z"
              style="fill:#7bb756;"
            />
          </g>
        </g>
        <g>
          <g>
            <path
              d="M50.718,198l-27.713,-16l19.919,-11.5l13.856,24l-6.062,3.5Z"
              style="fill:#ccc095;"
            />
            <path
              d="M48.986,191l-15.589,-9l7.795,-4.5l7.794,13.5Z"
              style="fill:#7bb756;"
            />
          </g>
          <g>
            <path
              d="M66.306,189l-6.062,3.5l-13.856,-24l19.918,-11.5l0,32Z"
              style="fill:#ccc095;"
            />
            <path
              d="M53.316,170.5l7.794,-4.5l0,18l-7.794,-13.5Z"
              style="fill:#7bb756;"
            />
          </g>
        </g>
      </g>
      <path
        id="park5"
        serif:id="park"
        d="M83.627,201l-15.589,-9l-15.588,9l31.177,18l0,-18Z"
        style="fill:#7bb756;"
      />
      <g id="roads5" serif:id="roads">
        <path
          d="M120,132l-10.392,-6l-6.929,4l0,2l1.733,-1l13.856,8l0,2l1.732,-1l0,-8Z"
          style="fill:#efcd44;"
        />
        <path
          d="M107.876,133l-86.603,50l-3.464,-2l86.603,-50l3.464,2Z"
          style="fill:#efcd44;"
        />
        <path
          d="M102.679,130l-84.87,49l1.732,1l83.138,-48l0,-2Z"
          style="fill:#7bb756;"
        />
        <path
          d="M118.268,139l0,100l-3.464,-2l0,-100l3.464,2Z"
          style="fill:#efcd44;"
        />
        <path
          d="M120,240l0,-100l-1.732,1l0,98l1.732,1Z"
          style="fill:#7bb756;"
        />
      </g>
      <g id="mass-transit5" serif:id="mass transit">
        <path
          d="M69.771,211l46.765,-27l-1.732,-1l0,-2l-46.766,27l0,2l1.733,1Z"
          style="fill:#58a4d7;"
        />
        <path
          d="M69.771,209l0,-58l-3.465,0l0,58l1.732,1l1.733,-1Z"
          style="fill:#58a4d7;"
        />
        <path
          d="M68.038,152l46.766,27l0,-2l1.732,-1l-46.765,-27l-1.733,3Z"
          style="fill:#58a4d7;"
        />
        <path
          d="M74.967,146l0,8l-6.929,4l-6.928,-4l13.857,-8Z"
          style="fill:#58a4d7;"
        />
        <path
          d="M120,240l-51.962,-30l1.733,-1l50.229,29l0,2Z"
          style="fill:#58a4d7;"
        />
        <path
          d="M68.038,208l0,2l-51.961,-30l1.732,-1l50.229,29Z"
          style="fill:#58a4d7;"
        />
        <path
          d="M113.072,184l0,-8l6.928,-4l0,16l-6.928,-4Z"
          style="fill:#58a4d7;"
        />
      </g>
    </g>
    <g id="v15" serif:id="v1">
      <path d="M120,120l-103.923,60l0,-120l103.923,60Z" style="fill:#ede5c7;" />
      <path
        d="M109.608,122l-91.799,53l0,-110l91.799,53l0,4Z"
        style="fill:#fbedb8;"
      />
      <g id="blocks6" serif:id="blocks">
        <g>
          <g>
            <path
              d="M102.679,124l-32.908,19l0,-21l32.908,0l0,2Z"
              style="fill:#ccc095;"
            />
            <path
              d="M87.091,127l-10.392,6l0,-6l10.392,0Z"
              style="fill:#7bb756;"
            />
          </g>
          <g>
            <path
              d="M102.679,118l-32.908,0l0,-21l32.908,19l0,2Z"
              style="fill:#ccc095;"
            />
            <path
              d="M76.699,113l0,-6l10.392,6l-10.392,0Z"
              style="fill:#7bb756;"
            />
          </g>
        </g>
        <g>
          <g>
            <path
              d="M35.13,111l27.712,-16l3.464,2l0,21l-31.176,0l0,-7Z"
              style="fill:#ccc095;"
            />
            <path
              d="M42.058,113l17.32,-10l0,10l-17.32,0Z"
              style="fill:#7bb756;"
            />
          </g>
          <g>
            <path
              d="M35.13,129l0,-7l31.176,0l0,21l-3.464,2l-27.712,-16Z"
              style="fill:#ccc095;"
            />
            <path
              d="M59.378,127l0,10l-17.32,-10l17.32,0Z"
              style="fill:#7bb756;"
            />
          </g>
        </g>
        <g>
          <g>
            <path
              d="M33.397,132l27.713,16l-19.918,11.5l-13.857,-24l6.062,-3.5Z"
              style="fill:#ccc095;"
            />
            <path
              d="M35.13,139l15.588,9l-7.794,4.5l-7.794,-13.5Z"
              style="fill:#7bb756;"
            />
          </g>
          <g>
            <path
              d="M17.809,141l6.062,-3.5l13.857,24l-19.919,11.5l0,-32Z"
              style="fill:#ccc095;"
            />
            <path
              d="M30.799,159.5l-7.794,4.5l0,-18l7.794,13.5Z"
              style="fill:#7bb756;"
            />
          </g>
        </g>
        <g>
          <g>
            <path
              d="M17.809,99l0,-32l19.919,11.5l-13.857,24l-6.062,-3.5Z"
              style="fill:#ccc095;"
            />
            <path
              d="M23.005,94l0,-18l7.794,4.5l-7.794,13.5Z"
              style="fill:#7bb756;"
            />
          </g>
          <g>
            <path
              d="M33.397,108l-6.062,-3.5l13.857,-24l19.918,11.5l-27.713,16Z"
              style="fill:#ccc095;"
            />
            <path
              d="M42.924,87.5l7.794,4.5l-15.588,9l7.794,-13.5Z"
              style="fill:#7bb756;"
            />
          </g>
        </g>
      </g>
      <path
        id="park6"
        serif:id="park"
        d="M31.665,129l0,-18l-15.588,-9l0,36l15.588,-9Z"
        style="fill:#7bb756;"
      />
      <g id="roads6" serif:id="roads">
        <path
          d="M109.608,126l0,-12l-6.929,-4l-1.732,1l1.732,1l0,16l-1.732,1l1.732,1l6.929,-4Z"
          style="fill:#efcd44;"
        />
        <path
          d="M102.679,116l-86.602,-50l0,-4l86.602,50l0,4Z"
          style="fill:#efcd44;"
        />
        <path
          d="M102.679,110l-84.87,-49l0,2l83.138,48l1.732,-1Z"
          style="fill:#7bb756;"
        />
        <path
          d="M102.679,128l-86.602,50l0,-4l86.602,-50l0,4Z"
          style="fill:#efcd44;"
        />
        <path
          d="M16.077,180l86.602,-50l-1.732,-1l-84.87,49l0,2Z"
          style="fill:#7bb756;"
        />
      </g>
      <g id="mass-transit6" serif:id="mass transit">
        <path
          d="M16.077,122l46.765,27l0,-2l1.732,-1l-46.765,-27l-1.732,1l0,2Z"
          style="fill:#58a4d7;"
        />
        <path
          d="M17.809,121l50.229,-29l-1.732,-3l-50.229,29l0,2l1.732,1Z"
          style="fill:#58a4d7;"
        />
        <path
          d="M66.306,91l0,54l1.732,-1l1.733,1l0,-54l-3.465,0Z"
          style="fill:#58a4d7;"
        />
        <path
          d="M74.967,94l-6.929,4l-6.928,-4l0,-8l13.857,8Z"
          style="fill:#58a4d7;"
        />
        <path
          d="M16.077,180l0,-60l1.732,1l0,58l-1.732,1Z"
          style="fill:#58a4d7;"
        />
        <path
          d="M17.809,119l-1.732,1l0,-60l1.732,1l0,58Z"
          style="fill:#58a4d7;"
        />
        <path
          d="M61.11,146l6.928,-4l6.929,4l-13.857,8l0,-8Z"
          style="fill:#58a4d7;"
        />
      </g>
    </g>
    <path
      id="park7"
      serif:id="park"
      d="M109.608,114l10.392,-6l10.392,6l0,12l-10.392,6l-10.392,-6l0,-12Z"
      style="fill:#7bb756;"
    />
  </g>
</svg>
