<?xml version="1.0" encoding="UTF-8" standalone="no" ?>
<!DOCTYPE svg PUBLIC "-//W3C//DTD SVG 1.1//EN"
  "http://www.w3.org/Graphics/SVG/1.1/DTD/svg11.dtd">
<svg
  width="100%"
  height="100%"
  viewBox="0 0 240 240"
  version="1.1"
  xmlns="http://www.w3.org/2000/svg"
  xmlns:xlink="http://www.w3.org/1999/xlink"
  xml:space="preserve"
  xmlns:serif="http://www.serif.com/"
  style="fill-rule:evenodd;clip-rule:evenodd;stroke-linejoin:round;stroke-miterlimit:2;"
>
  <rect
    id="solarpunk"
    x="0"
    y="0"
    width="240"
    height="240"
    style="fill:none;"
  />
  <clipPath id="_clip1">
    <rect x="0" y="0" width="240" height="240" />
  </clipPath>
  <g clip-path="url(#_clip1)">
    <rect x="0" y="0" width="240" height="240" style="fill:#808080;" />
    <path
      d="M120,0l103.923,60l0,120l-103.923,60l-103.923,-60l0,-120l103.923,-60Z"
      style="fill:#808080;"
    />
    <g>
      <path
        d="M120,0l-14.682,8.477l14.682,111.523l14.682,-111.523l-14.682,-8.477Z"
        style="fill:#c4f20d;"
      />
      <path d="M160.113,23.159l-40.113,96.841l14.682,-111.523l25.431,14.682Z" />
      <path
        d="M183.81,36.841l-63.81,83.159l40.113,-96.841l23.697,13.682Z"
        style="fill:#c4f20d;"
      />
      <path d="M209.241,51.523l-89.241,68.477l63.81,-83.159l25.431,14.682Z" />
      <path
        d="M223.923,60l0,16.954l-103.923,43.046l89.241,-68.477l14.682,8.477Z"
        style="fill:#c4f20d;"
      />
      <path d="M223.923,106.318l-103.923,13.682l103.923,-43.046l0,29.364Z" />
      <path
        d="M223.923,133.682l-103.923,-13.682l103.923,-13.682l0,27.364Z"
        style="fill:#c4f20d;"
      />
      <path d="M223.923,163.046l-103.923,-43.046l103.923,13.682l0,29.364Z" />
      <path
        d="M223.923,180l-14.682,8.477l-89.241,-68.477l103.923,43.046l0,16.954Z"
        style="fill:#c4f20d;"
      />
      <path d="M183.81,203.159l-63.81,-83.159l89.241,68.477l-25.431,14.682Z" />
      <path
        d="M160.113,216.841l-40.113,-96.841l63.81,83.159l-23.697,13.682Z"
        style="fill:#c4f20d;"
      />
      <path
        d="M134.682,231.523l-14.682,-111.523l40.113,96.841l-25.431,14.682Z"
      />
      <path
        d="M120,240l14.682,-8.477l-14.682,-111.523l-14.682,111.523l14.682,8.477Z"
        style="fill:#c4f20d;"
      />
      <path
        d="M79.887,216.841l40.113,-96.841l-14.682,111.523l-25.431,-14.682Z"
      />
      <path
        d="M56.19,203.159l63.81,-83.159l-40.113,96.841l-23.697,-13.682Z"
        style="fill:#c4f20d;"
      />
      <path d="M30.759,188.477l89.241,-68.477l-63.81,83.159l-25.431,-14.682Z" />
      <path
        d="M16.077,180l14.682,8.477l89.241,-68.477l-103.923,43.046l0,16.954Z"
        style="fill:#c4f20d;"
      />
      <path d="M16.077,133.682l103.923,-13.682l-103.923,43.046l0,-29.364Z" />
      <path
        d="M16.077,106.318l103.923,13.682l-103.923,13.682l0,-27.364Z"
        style="fill:#c4f20d;"
      />
      <path d="M16.077,76.954l103.923,43.046l-103.923,-13.682l0,-29.364Z" />
      <path
        d="M16.077,60l0,16.954l103.923,43.046l-89.241,-68.477l-14.682,8.477Z"
        style="fill:#c4f20d;"
      />
      <path d="M56.19,36.841l63.81,83.159l-89.241,-68.477l25.431,-14.682Z" />
      <path
        d="M79.887,23.159l40.113,96.841l-63.81,-83.159l23.697,-13.682Z"
        style="fill:#c4f20d;"
      />
      <path d="M105.318,8.477l14.682,111.523l-40.113,-96.841l25.431,-14.682Z" />
      <path
        d="M120,80l34.641,20l0,40l-34.641,20l-34.641,-20l0,-40l34.641,-20Z"
        style="fill:#c4f20d;"
      />
    </g>
  </g>
</svg>
