<?xml version="1.0" encoding="UTF-8" standalone="no" ?>
<!DOCTYPE svg PUBLIC "-//W3C//DTD SVG 1.1//EN"
  "http://www.w3.org/Graphics/SVG/1.1/DTD/svg11.dtd">
<svg
  width="100%"
  height="100%"
  viewBox="0 0 240 240"
  version="1.1"
  xmlns="http://www.w3.org/2000/svg"
  xmlns:xlink="http://www.w3.org/1999/xlink"
  xml:space="preserve"
  xmlns:serif="http://www.serif.com/"
  style="fill-rule:evenodd;clip-rule:evenodd;stroke-linejoin:round;stroke-miterlimit:2;"
>
  <rect id="time" x="0" y="0" width="240" height="240" style="fill:none;" />
  <clipPath id="_clip1">
    <rect x="0" y="0" width="240" height="240" />
  </clipPath>
  <g clip-path="url(#_clip1)">
    <path
      d="M240,120l-60,103.923l-120,0l-60,-103.923l60,-103.923l120,0l60,103.923Z"
      style="fill:#808080;"
    />
    <g id="outline">
      <path
        id="future"
        d="M180,223.923l60,-103.923l-60,-103.923l-20,34.641l30,51.961l-60,0l-10,17.321l10,17.321l60,0l-30,51.961l20,34.641Z"
        style="fill:#c5c5c5;"
      />
      <path
        id="past"
        d="M60,16.077l-60,103.923l60,103.923l20,-34.641l-30,-51.961l60,0l10,-17.321l-10,-17.321l-60,0l30,-51.961l-20,-34.641Z"
        style="fill:#c5c5c5;"
      />
      <path
        id="present"
        d="M60,223.923l120,0l-60,-103.923l-60,103.923Zm60,-103.923l-60,-103.923l120,0l-60,103.923Z"
        style="fill:#c5c5c5;"
      />
    </g>
    <g id="color">
      <path
        id="future1"
        serif:id="future"
        d="M180,223.923l60,-103.923l-60,-103.923l-20,34.641l30,51.961l-60,0l-10,17.321l10,17.321l60,0l-30,51.961l20,34.641Z"
        style="fill:#c4f20d;"
      />
      <path
        id="past1"
        serif:id="past"
        d="M60,16.077l-60,103.923l60,103.923l20,-34.641l-30,-51.961l60,0l10,-17.321l-10,-17.321l-60,0l30,-51.961l-20,-34.641Z"
        style="fill:#f3768b;"
      />
      <path
        id="present1"
        serif:id="present"
        d="M60,223.923l120,0l-60,-103.923l-60,103.923Zm60,-103.923l-60,-103.923l120,0l-60,103.923Z"
        style="fill:#efcd44;"
      />
    </g>
  </g>
</svg>
