<?xml version="1.0" encoding="UTF-8" standalone="no" ?>
<!DOCTYPE svg PUBLIC "-//W3C//DTD SVG 1.1//EN"
  "http://www.w3.org/Graphics/SVG/1.1/DTD/svg11.dtd">
<svg
  width="100%"
  height="100%"
  viewBox="0 0 240 240"
  version="1.1"
  xmlns="http://www.w3.org/2000/svg"
  xmlns:xlink="http://www.w3.org/1999/xlink"
  xml:space="preserve"
  xmlns:serif="http://www.serif.com/"
  style="fill-rule:evenodd;clip-rule:evenodd;stroke-linejoin:round;stroke-miterlimit:2;"
>
  <rect
    id="skandinavien"
    x="0"
    y="0"
    width="240"
    height="240"
    style="fill:none;"
  />
  <clipPath id="_clip1">
    <rect x="0" y="0" width="240" height="240" />
  </clipPath>
  <g clip-path="url(#_clip1)">
    <rect x="0" y="0" width="240" height="240" style="fill:#808080;" />
    <path
      d="M120,0l103.923,60l0,120l-103.923,60l-103.923,-60l0,-120l103.923,-60Z"
      style="fill:#808080;"
    />
    <g id="norge">
      <path
        d="M16.077,74l0,-14l12.124,-7l79.675,46l12.124,21l-24.249,0l-79.674,-46Z"
        style="fill:#003087;"
      />
      <path
        d="M33.397,50l69.282,40l5.197,9l-79.675,-46l5.196,-3Z"
        style="fill:#fff;"
      />
      <path
        d="M16.077,74l79.674,46l-10.392,0l-69.282,-40l0,-6Z"
        style="fill:#fff;"
      />
      <path
        d="M102.679,90l-69.282,-40l34.641,-20l34.641,60Z"
        style="fill:#c8102e;"
      />
      <path d="M16.077,80l0,40l69.282,0l-69.282,-40Z" style="fill:#c8102e;" />
    </g>
    <g id="island">
      <path
        d="M28.201,187l-12.124,-7l0,-14l79.674,-46l24.249,0l-12.124,21l-79.675,46Z"
        style="fill:#dc1e35;"
      />
      <path
        d="M16.077,160l69.282,-40l10.392,0l-79.674,46l0,-6Z"
        style="fill:#fff;"
      />
      <path
        d="M28.201,187l79.675,-46l-5.197,9l-69.282,40l-5.196,-3Z"
        style="fill:#fff;"
      />
      <path d="M85.359,120l-69.282,40l0,-40l69.282,0Z" style="fill:#02529c;" />
      <path
        d="M33.397,190l34.641,20l34.641,-60l-69.282,40Z"
        style="fill:#02529c;"
      />
    </g>
    <g id="danmark">
      <path
        d="M137.321,230l-17.321,10l-17.321,-10l0,-80l17.321,-30l17.321,30l0,80Z"
        style="fill:#fff;"
      />
      <path
        d="M102.679,150l0,80l-34.641,-20l34.641,-60Z"
        style="fill:#c60c30;"
      />
      <path
        d="M137.321,230l34.641,-20l-34.641,-60l0,80Z"
        style="fill:#c60c30;"
      />
    </g>
    <g id="eesti">
      <path
        d="M223.923,160l0,20l-17.32,10l-69.282,-40l-17.321,-30l34.641,0l69.282,40Z"
      />
      <path
        d="M137.321,150l69.282,40l-34.641,20l-34.641,-60Z"
        style="fill:#fff;"
      />
      <path d="M223.923,160l0,-40l-69.282,0l69.282,40Z" style="fill:#0072ce;" />
    </g>
    <g id="suomi">
      <path
        d="M206.603,50l17.32,10l0,20l-69.282,40l-34.641,0l17.321,-30l69.282,-40Z"
        style="fill:#002f6c;"
      />
      <path d="M154.641,120l69.282,-40l0,40l-69.282,0Z" style="fill:#fff;" />
      <path
        d="M206.603,50l-34.641,-20l-34.641,60l69.282,-40Z"
        style="fill:#fff;"
      />
    </g>
    <g id="sverige">
      <path
        d="M102.679,10l17.321,-10l17.321,10l0,80l-17.321,30l-17.321,-30l0,-80Z"
        style="fill:#fecb00;"
      />
      <path d="M137.321,90l0,-80l34.641,20l-34.641,60Z" style="fill:#005293;" />
      <path d="M102.679,10l-34.641,20l34.641,60l0,-80Z" style="fill:#005293;" />
    </g>
    <path
      d="M120,80l34.641,20l0,40l-34.641,20l-34.641,-20l0,-40l34.641,-20Z"
      style="fill:#c4f20d;"
    />
  </g>
</svg>
