<?xml version="1.0" encoding="UTF-8" standalone="no" ?>
<!DOCTYPE svg PUBLIC "-//W3C//DTD SVG 1.1//EN"
  "http://www.w3.org/Graphics/SVG/1.1/DTD/svg11.dtd">
<svg
  width="100%"
  height="100%"
  viewBox="0 0 240 240"
  version="1.1"
  xmlns="http://www.w3.org/2000/svg"
  xmlns:xlink="http://www.w3.org/1999/xlink"
  xml:space="preserve"
  xmlns:serif="http://www.serif.com/"
  style="fill-rule:evenodd;clip-rule:evenodd;stroke-linejoin:round;stroke-miterlimit:2;"
>
  <rect id="yinyang" x="0" y="0" width="240" height="240" style="fill:none;" />
  <clipPath id="_clip1">
    <rect x="0" y="0" width="240" height="240" />
  </clipPath>
  <g clip-path="url(#_clip1)">
    <rect x="0" y="0" width="240" height="240" style="fill:#808080;" />
    <path
      d="M120,0l103.923,60l0,120l-103.923,60l-103.923,-60l0,-120l103.923,-60Z"
      style="fill:#808080;"
    />
    <path
      d="M16.077,180l0,-120l103.923,-60l51.962,30l0,60l-103.924,60l0,60l-51.961,-30Z"
    />
    <path
      d="M120,30l25.981,15l0,30l-25.981,15l-25.981,-15l0,-30l25.981,-15Z"
      style="fill:#fff;"
    />
    <path
      d="M171.962,30l51.961,30l0,120l-103.923,60l-51.962,-30l0,-60l103.924,-60l0,-60Z"
      style="fill:#fff;"
    />
    <path
      d="M120,150l25.981,15l0,30l-25.981,15l-25.981,-15l0,-30l25.981,-15Z"
    />
  </g>
</svg>
